<svg xmlns="http://www.w3.org/2000/svg" width="1440" height="900"><path d="M702,468L756,514L742,429Z" fill="#3087df" stroke="#3087df" stroke-width="1.51"/><path d="M756,514L824,476L742,429Z" fill="#3c8cdf" stroke="#3c8cdf" stroke-width="1.51"/><path d="M756,514L790,551L824,476Z" fill="#4c93e0" stroke="#4c93e0" stroke-width="1.51"/><path d="M667,549L790,551L756,514Z" fill="#4992e0" stroke="#4992e0" stroke-width="1.51"/><path d="M702,468L667,549L756,514Z" fill="#408adf" stroke="#408adf" stroke-width="1.51"/><path d="M742,429L662,382L702,468Z" fill="#367ed9" stroke="#367ed9" stroke-width="1.51"/><path d="M702,468L556,452L667,549Z" fill="#4a81d7" stroke="#4a81d7" stroke-width="1.51"/><path d="M680,355L662,382L742,429Z" fill="#4778d3" stroke="#4778d3" stroke-width="1.51"/><path d="M743,309L680,355L742,429Z" fill="#4976d2" stroke="#4976d2" stroke-width="1.51"/><path d="M790,551L878,559L824,476Z" fill="#589ae0" stroke="#589ae0" stroke-width="1.51"/><path d="M849,642L878,559L790,551Z" fill="#66a2e0" stroke="#66a2e0" stroke-width="1.51"/><path d="M884,380L743,309L742,429Z" fill="#537fd3" stroke="#537fd3" stroke-width="1.51"/><path d="M884,380L742,429L824,476Z" fill="#478add" stroke="#478add" stroke-width="1.51"/><path d="M959,403L884,380L824,476Z" fill="#5790db" stroke="#5790db" stroke-width="1.51"/><path d="M667,549L738,649L790,551Z" fill="#5497e0" stroke="#5497e0" stroke-width="1.51"/><path d="M541,371L560,429L662,382Z" fill="#596dc9" stroke="#596dc9" stroke-width="1.51"/><path d="M662,382L560,429L702,468Z" fill="#4778d3" stroke="#4778d3" stroke-width="1.51"/><path d="M667,549L696,667L738,649Z" fill="#609ade" stroke="#609ade" stroke-width="1.51"/><path d="M541,371L662,382L604,279Z" fill="#6167c3" stroke="#6167c3" stroke-width="1.51"/><path d="M560,429L556,452L702,468Z" fill="#4777d3" stroke="#4777d3" stroke-width="1.51"/><path d="M738,649L849,642L790,551Z" fill="#65a2e0" stroke="#65a2e0" stroke-width="1.51"/><path d="M614,691L696,667L667,549Z" fill="#6a97d9" stroke="#6a97d9" stroke-width="1.51"/><path d="M738,649L787,733L849,642Z" fill="#72abe0" stroke="#72abe0" stroke-width="1.51"/><path d="M556,452L571,574L667,549Z" fill="#5c81d3" stroke="#5c81d3" stroke-width="1.51"/><path d="M973,521L959,403L824,476Z" fill="#589ae0" stroke="#589ae0" stroke-width="1.51"/><path d="M849,642L924,570L878,559Z" fill="#6ea8e0" stroke="#6ea8e0" stroke-width="1.51"/><path d="M663,217L604,279L680,355Z" fill="#6662bf" stroke="#6662bf" stroke-width="1.51"/><path d="M812,226L745,254L743,309Z" fill="#686bc4" stroke="#686bc4" stroke-width="1.51"/><path d="M884,380L873,294L743,309Z" fill="#657ccd" stroke="#657ccd" stroke-width="1.51"/><path d="M908,308L873,294L884,380Z" fill="#6d82cd" stroke="#6d82cd" stroke-width="1.51"/><path d="M973,521L824,476L878,559Z" fill="#609ee0" stroke="#609ee0" stroke-width="1.51"/><path d="M556,452L519,476L571,574Z" fill="#5e79cd" stroke="#5e79cd" stroke-width="1.51"/><path d="M560,429L519,476L556,452Z" fill="#5371cd" stroke="#5371cd" stroke-width="1.51"/><path d="M604,279L662,382L680,355Z" fill="#5c6bc7" stroke="#5c6bc7" stroke-width="1.51"/><path d="M560,429L450,454L519,476Z" fill="#596ec9" stroke="#596ec9" stroke-width="1.51"/><path d="M959,403L908,308L884,380Z" fill="#698ad3" stroke="#698ad3" stroke-width="1.51"/><path d="M924,570L973,521L878,559Z" fill="#6ba6e0" stroke="#6ba6e0" stroke-width="1.51"/><path d="M663,217L680,355L743,309Z" fill="#5f69c5" stroke="#5f69c5" stroke-width="1.51"/><path d="M696,667L714,713L738,649Z" fill="#69a4df" stroke="#69a4df" stroke-width="1.51"/><path d="M614,691L714,713L696,667Z" fill="#72a1db" stroke="#72a1db" stroke-width="1.51"/><path d="M973,521L994,474L959,403Z" fill="#61a0e0" stroke="#61a0e0" stroke-width="1.51"/><path d="M853,181L812,226L873,294Z" fill="#776fc0" stroke="#776fc0" stroke-width="1.51"/><path d="M873,294L812,226L743,309Z" fill="#6b72c6" stroke="#6b72c6" stroke-width="1.51"/><path d="M745,254L663,217L743,309Z" fill="#6266c3" stroke="#6266c3" stroke-width="1.51"/><path d="M571,574L614,691L667,549Z" fill="#6a8fd5" stroke="#6a8fd5" stroke-width="1.51"/><path d="M507,618L614,691L571,574Z" fill="#768dd0" stroke="#768dd0" stroke-width="1.51"/><path d="M714,713L787,733L738,649Z" fill="#70aae0" stroke="#70aae0" stroke-width="1.51"/><path d="M937,700L1003,600L924,570Z" fill="#7eb5e0" stroke="#7eb5e0" stroke-width="1.51"/><path d="M924,570L1003,600L973,521Z" fill="#74ade0" stroke="#74ade0" stroke-width="1.51"/><path d="M814,757L787,733L711,808Z" fill="#7fb5e0" stroke="#7fb5e0" stroke-width="1.51"/><path d="M715,151L663,217L745,254Z" fill="#6b5cba" stroke="#6b5cba" stroke-width="1.51"/><path d="M519,476L507,618L571,574Z" fill="#6c7fcc" stroke="#6c7fcc" stroke-width="1.51"/><path d="M614,691L592,715L714,713Z" fill="#7aa0d7" stroke="#7aa0d7" stroke-width="1.51"/><path d="M507,618L592,715L614,691Z" fill="#7d94d0" stroke="#7d94d0" stroke-width="1.51"/><path d="M973,521L1073,462L994,474Z" fill="#6ba6e0" stroke="#6ba6e0" stroke-width="1.51"/><path d="M937,700L924,570L849,642Z" fill="#7ab2e0" stroke="#7ab2e0" stroke-width="1.51"/><path d="M787,733L814,757L849,642Z" fill="#7cb4e0" stroke="#7cb4e0" stroke-width="1.51"/><path d="M711,808L787,733L714,713Z" fill="#7ab1e0" stroke="#7ab1e0" stroke-width="1.51"/><path d="M541,371L450,454L560,429Z" fill="#5f69c6" stroke="#5f69c6" stroke-width="1.51"/><path d="M519,476L404,560L507,618Z" fill="#7278c7" stroke="#7278c7" stroke-width="1.51"/><path d="M423,384L450,454L541,371Z" fill="#6661be" stroke="#6661be" stroke-width="1.51"/><path d="M604,279L503,300L541,371Z" fill="#6c5dba" stroke="#6c5dba" stroke-width="1.51"/><path d="M663,217L624,201L604,279Z" fill="#7057b6" stroke="#7057b6" stroke-width="1.51"/><path d="M715,151L624,201L663,217Z" fill="#7255b3" stroke="#7255b3" stroke-width="1.51"/><path d="M495,247L503,300L604,279Z" fill="#7354b2" stroke="#7354b2" stroke-width="1.51"/><path d="M814,757L937,700L849,642Z" fill="#81b7e0" stroke="#81b7e0" stroke-width="1.51"/><path d="M812,226L799,169L745,254Z" fill="#7166bd" stroke="#7166bd" stroke-width="1.51"/><path d="M853,181L799,169L812,226Z" fill="#7965ba" stroke="#7965ba" stroke-width="1.51"/><path d="M955,196L853,181L873,294Z" fill="#7e72bf" stroke="#7e72bf" stroke-width="1.51"/><path d="M955,196L873,294L908,308Z" fill="#7b7bc5" stroke="#7b7bc5" stroke-width="1.51"/><path d="M1061,329L908,308L959,403Z" fill="#758ed1" stroke="#758ed1" stroke-width="1.51"/><path d="M994,474L1050,397L959,403Z" fill="#689cdc" stroke="#689cdc" stroke-width="1.51"/><path d="M1073,462L1050,397L994,474Z" fill="#69a3df" stroke="#69a3df" stroke-width="1.51"/><path d="M799,169L715,151L745,254Z" fill="#715fb9" stroke="#715fb9" stroke-width="1.51"/><path d="M1003,600L1073,462L973,521Z" fill="#74ade0" stroke="#74ade0" stroke-width="1.51"/><path d="M507,618L473,663L592,715Z" fill="#818ecc" stroke="#818ecc" stroke-width="1.51"/><path d="M406,650L473,663L507,618Z" fill="#8484c6" stroke="#8484c6" stroke-width="1.51"/><path d="M450,454L404,560L519,476Z" fill="#696ec4" stroke="#696ec4" stroke-width="1.51"/><path d="M503,300L423,384L541,371Z" fill="#6d5bb9" stroke="#6d5bb9" stroke-width="1.51"/><path d="M624,201L495,247L604,279Z" fill="#7353b2" stroke="#7353b2" stroke-width="1.51"/><path d="M503,300L416,304L423,384Z" fill="#7352b2" stroke="#7352b2" stroke-width="1.51"/><path d="M491,187L495,247L624,201Z" fill="#7949aa" stroke="#7949aa" stroke-width="1.51"/><path d="M592,715L711,808L714,713Z" fill="#7daadb" stroke="#7daadb" stroke-width="1.51"/><path d="M814,757L968,744L937,700Z" fill="#8bc1e0" stroke="#8bc1e0" stroke-width="1.51"/><path d="M593,877L711,808L592,715Z" fill="#87a8d7" stroke="#87a8d7" stroke-width="1.51"/><path d="M1050,397L1061,329L959,403Z" fill="#7697d5" stroke="#7697d5" stroke-width="1.51"/><path d="M1068,322L1061,329L1093,391Z" fill="#8198d1" stroke="#8198d1" stroke-width="1.51"/><path d="M1061,329L955,196L908,308Z" fill="#8083c6" stroke="#8083c6" stroke-width="1.51"/><path d="M857,76L726,81L799,169Z" fill="#7559ab" stroke="#7559ab" stroke-width="1.51"/><path d="M799,169L726,81L715,151Z" fill="#7456b0" stroke="#7456b0" stroke-width="1.51"/><path d="M937,700L1015,706L1003,600Z" fill="#8abfe0" stroke="#8abfe0" stroke-width="1.51"/><path d="M1003,600L1139,566L1073,462Z" fill="#7eb5e0" stroke="#7eb5e0" stroke-width="1.51"/><path d="M1000,804L968,744L944,878Z" fill="#9acde0" stroke="#9acde0" stroke-width="1.51"/><path d="M364,455L404,560L450,454Z" fill="#6e67bf" stroke="#6e67bf" stroke-width="1.51"/><path d="M1061,329L1026,193L955,196Z" fill="#8a81c1" stroke="#8a81c1" stroke-width="1.51"/><path d="M1093,391L1061,329L1050,397Z" fill="#7d9bd4" stroke="#7d9bd4" stroke-width="1.51"/><path d="M968,744L1015,706L937,700Z" fill="#91c6e0" stroke="#91c6e0" stroke-width="1.51"/><path d="M1178,445L1093,391L1073,462Z" fill="#76a9dd" stroke="#76a9dd" stroke-width="1.51"/><path d="M1073,462L1093,391L1050,397Z" fill="#74a2db" stroke="#74a2db" stroke-width="1.51"/><path d="M495,247L416,304L503,300Z" fill="#774ead" stroke="#774ead" stroke-width="1.51"/><path d="M423,384L364,455L450,454Z" fill="#695fbd" stroke="#695fbd" stroke-width="1.51"/><path d="M473,663L469,732L592,715Z" fill="#8992ca" stroke="#8992ca" stroke-width="1.51"/><path d="M406,650L469,732L473,663Z" fill="#8c88c4" stroke="#8c88c4" stroke-width="1.51"/><path d="M296,406L364,455L423,384Z" fill="#7057b5" stroke="#7057b5" stroke-width="1.51"/><path d="M404,560L406,650L507,618Z" fill="#807cc3" stroke="#807cc3" stroke-width="1.51"/><path d="M495,247L413,223L416,304Z" fill="#7c45a7" stroke="#7c45a7" stroke-width="1.51"/><path d="M549,135L491,187L624,201Z" fill="#7b44a6" stroke="#7b44a6" stroke-width="1.51"/><path d="M347,667L406,650L314,590Z" fill="#8c77bb" stroke="#8c77bb" stroke-width="1.51"/><path d="M668,67L549,135L624,201Z" fill="#7846a6" stroke="#7846a6" stroke-width="1.51"/><path d="M857,76L799,169L853,181Z" fill="#8060b2" stroke="#8060b2" stroke-width="1.51"/><path d="M715,151L668,67L624,201Z" fill="#754dac" stroke="#754dac" stroke-width="1.51"/><path d="M955,196L924,122L853,181Z" fill="#876bb6" stroke="#876bb6" stroke-width="1.51"/><path d="M1001,145L924,122L955,196Z" fill="#8e6eb5" stroke="#8e6eb5" stroke-width="1.51"/><path d="M1068,322L1026,193L1061,329Z" fill="#898cc7" stroke="#898cc7" stroke-width="1.51"/><path d="M1107,217L1026,193L1068,322Z" fill="#9087c2" stroke="#9087c2" stroke-width="1.51"/><path d="M1124,703L1139,566L1003,600Z" fill="#8ec3e0" stroke="#8ec3e0" stroke-width="1.51"/><path d="M711,808L776,876L814,757Z" fill="#82b7e0" stroke="#82b7e0" stroke-width="1.51"/><path d="M670,947L776,876L711,808Z" fill="#81b4e1" stroke="#81b4e1" stroke-width="1.51"/><path d="M924,122L857,76L853,181Z" fill="#8263af" stroke="#8263af" stroke-width="1.51"/><path d="M726,81L668,67L715,151Z" fill="#6d50a8" stroke="#6d50a8" stroke-width="1.51"/><path d="M626,32L668,67L673,10Z" fill="#674696" stroke="#674696" stroke-width="1.51"/><path d="M416,304L296,406L423,384Z" fill="#7550b0" stroke="#7550b0" stroke-width="1.51"/><path d="M491,187L413,223L495,247Z" fill="#7d41a4" stroke="#7d41a4" stroke-width="1.51"/><path d="M428,118L413,223L491,187Z" fill="#82359c" stroke="#82359c" stroke-width="1.51"/><path d="M1026,193L1001,145L955,196Z" fill="#8f75b8" stroke="#8f75b8" stroke-width="1.51"/><path d="M924,122L958,63L857,76Z" fill="#8064a7" stroke="#8064a7" stroke-width="1.51"/><path d="M1015,706L1124,703L1003,600Z" fill="#92c6e0" stroke="#92c6e0" stroke-width="1.51"/><path d="M968,744L1056,771L1015,706Z" fill="#99cde0" stroke="#99cde0" stroke-width="1.51"/><path d="M889,878L968,744L814,757Z" fill="#90c3e0" stroke="#90c3e0" stroke-width="1.51"/><path d="M1139,566L1171,481L1073,462Z" fill="#7eb5e0" stroke="#7eb5e0" stroke-width="1.51"/><path d="M1194,249L1107,217L1068,322Z" fill="#9490c4" stroke="#9490c4" stroke-width="1.51"/><path d="M776,876L889,878L814,757Z" fill="#8bbfe1" stroke="#8bbfe1" stroke-width="1.51"/><path d="M1000,804L1056,771L968,744Z" fill="#9cd0e0" stroke="#9cd0e0" stroke-width="1.51"/><path d="M1069,838L1056,771L1000,804Z" fill="#a1d4e0" stroke="#a1d4e0" stroke-width="1.51"/><path d="M492,832L593,877L592,715Z" fill="#90a1d0" stroke="#90a1d0" stroke-width="1.51"/><path d="M776,876L828,955L889,878Z" fill="#90c1e1" stroke="#90c1e1" stroke-width="1.51"/><path d="M1171,481L1178,445L1073,462Z" fill="#78b0e0" stroke="#78b0e0" stroke-width="1.51"/><path d="M1026,193L1088,185L1001,145Z" fill="#9479b8" stroke="#9479b8" stroke-width="1.51"/><path d="M469,732L492,832L592,715Z" fill="#919bcb" stroke="#919bcb" stroke-width="1.51"/><path d="M424,834L492,832L469,732Z" fill="#9996c6" stroke="#9996c6" stroke-width="1.51"/><path d="M593,877L622,897L711,808Z" fill="#8aacd8" stroke="#8aacd8" stroke-width="1.51"/><path d="M670,947L561,1030L647,1047Z" fill="#95afd8" stroke="#95afd8" stroke-width="1.51"/><path d="M1219,320L1068,322L1093,391Z" fill="#889dd0" stroke="#889dd0" stroke-width="1.51"/><path d="M406,650L368,744L469,732Z" fill="#9388c0" stroke="#9388c0" stroke-width="1.51"/><path d="M314,590L406,650L404,560Z" fill="#8574bd" stroke="#8574bd" stroke-width="1.51"/><path d="M1120,736L1124,703L1015,706Z" fill="#9dd1df" stroke="#9dd1df" stroke-width="1.51"/><path d="M1139,566L1189,549L1171,481Z" fill="#87bde0" stroke="#87bde0" stroke-width="1.51"/><path d="M364,455L314,590L404,560Z" fill="#7b69bb" stroke="#7b69bb" stroke-width="1.51"/><path d="M271,560L314,590L364,455Z" fill="#7f64b6" stroke="#7f64b6" stroke-width="1.51"/><path d="M1107,217L1088,185L1026,193Z" fill="#9681bb" stroke="#9681bb" stroke-width="1.51"/><path d="M1001,145L958,63L924,122Z" fill="#896aac" stroke="#896aac" stroke-width="1.51"/><path d="M1194,639L1189,549L1139,566Z" fill="#90c5e0" stroke="#90c5e0" stroke-width="1.51"/><path d="M1171,481L1275,459L1178,445Z" fill="#7db3e0" stroke="#7db3e0" stroke-width="1.51"/><path d="M889,878L944,878L968,744Z" fill="#97cae0" stroke="#97cae0" stroke-width="1.51"/><path d="M943,894L944,878L889,878Z" fill="#99cbe0" stroke="#99cbe0" stroke-width="1.51"/><path d="M300,279L296,406L416,304Z" fill="#7b45a7" stroke="#7b45a7" stroke-width="1.51"/><path d="M668,67L626,32L549,135Z" fill="#70439a" stroke="#70439a" stroke-width="1.51"/><path d="M549,135L428,118L491,187Z" fill="#82369c" stroke="#82369c" stroke-width="1.51"/><path d="M673,10L668,67L726,81Z" fill="#674b9d" stroke="#674b9d" stroke-width="1.51"/><path d="M670,947L777,927L776,876Z" fill="#86b8e1" stroke="#86b8e1" stroke-width="1.51"/><path d="M1124,703L1194,639L1139,566Z" fill="#98cce0" stroke="#98cce0" stroke-width="1.51"/><path d="M1056,771L1120,736L1015,706Z" fill="#9fd2e0" stroke="#9fd2e0" stroke-width="1.51"/><path d="M1069,838L1120,736L1056,771Z" fill="#a5d8df" stroke="#a5d8df" stroke-width="1.51"/><path d="M413,223L334,263L416,304Z" fill="#7e3fa2" stroke="#7e3fa2" stroke-width="1.51"/><path d="M349,152L334,263L413,223Z" fill="#843199" stroke="#843199" stroke-width="1.51"/><path d="M736,-51L673,10L726,81Z" fill="#604b97" stroke="#604b97" stroke-width="1.51"/><path d="M1063,33L958,63L1001,145Z" fill="#896da6" stroke="#896da6" stroke-width="1.51"/><path d="M347,667L368,744L406,650Z" fill="#9380bc" stroke="#9380bc" stroke-width="1.51"/><path d="M272,701L368,744L347,667Z" fill="#997fb8" stroke="#997fb8" stroke-width="1.51"/><path d="M944,878L1069,838L1000,804Z" fill="#a0d2e0" stroke="#a0d2e0" stroke-width="1.51"/><path d="M828,955L943,894L889,878Z" fill="#97c8e1" stroke="#97c8e1" stroke-width="1.51"/><path d="M736,-51L726,81L857,76Z" fill="#69539c" stroke="#69539c" stroke-width="1.51"/><path d="M368,744L378,763L469,732Z" fill="#9a8dbf" stroke="#9a8dbf" stroke-width="1.51"/><path d="M505,37L549,135L626,32Z" fill="#723c93" stroke="#723c93" stroke-width="1.51"/><path d="M505,37L428,118L549,135Z" fill="#7a3492" stroke="#7a3492" stroke-width="1.51"/><path d="M1218,761L1194,639L1124,703Z" fill="#a3d8df" stroke="#a3d8df" stroke-width="1.51"/><path d="M622,897L670,947L711,808Z" fill="#88afdb" stroke="#88afdb" stroke-width="1.51"/><path d="M561,1030L622,897L593,877Z" fill="#94a9d4" stroke="#94a9d4" stroke-width="1.51"/><path d="M487,892L593,877L492,832Z" fill="#979fcc" stroke="#979fcc" stroke-width="1.51"/><path d="M314,590L272,701L347,667Z" fill="#9274b6" stroke="#9274b6" stroke-width="1.51"/><path d="M368,744L337,813L378,763Z" fill="#9f8abb" stroke="#9f8abb" stroke-width="1.51"/><path d="M214,492L271,560L364,455Z" fill="#7b5cb2" stroke="#7b5cb2" stroke-width="1.51"/><path d="M378,763L424,834L469,732Z" fill="#9b91c1" stroke="#9b91c1" stroke-width="1.51"/><path d="M334,263L300,279L416,304Z" fill="#7f3da1" stroke="#7f3da1" stroke-width="1.51"/><path d="M296,406L214,492L364,455Z" fill="#7255b3" stroke="#7255b3" stroke-width="1.51"/><path d="M206,188L300,279L334,263Z" fill="#842a95" stroke="#842a95" stroke-width="1.51"/><path d="M1120,736L1218,761L1124,703Z" fill="#a7dcdf" stroke="#a7dcdf" stroke-width="1.51"/><path d="M943,894L1069,838L944,878Z" fill="#9fd1e0" stroke="#9fd1e0" stroke-width="1.51"/><path d="M777,927L828,955L776,876Z" fill="#8cbee1" stroke="#8cbee1" stroke-width="1.51"/><path d="M1159,927L1181,850L1069,838Z" fill="#b0e2e0" stroke="#b0e2e0" stroke-width="1.51"/><path d="M729,993L828,955L777,927Z" fill="#8dbee1" stroke="#8dbee1" stroke-width="1.51"/><path d="M424,834L487,892L492,832Z" fill="#9b98c7" stroke="#9b98c7" stroke-width="1.51"/><path d="M483,8L505,37L569,-67Z" fill="#6a3281" stroke="#6a3281" stroke-width="1.51"/><path d="M1178,445L1219,320L1093,391Z" fill="#85a6d6" stroke="#85a6d6" stroke-width="1.51"/><path d="M1175,117L1137,102L1088,185Z" fill="#9f7eb1" stroke="#9f7eb1" stroke-width="1.51"/><path d="M1290,384L1219,320L1178,445Z" fill="#89a7d6" stroke="#89a7d6" stroke-width="1.51"/><path d="M1275,459L1171,481L1189,549Z" fill="#83b8e0" stroke="#83b8e0" stroke-width="1.51"/><path d="M1219,320L1194,249L1068,322Z" fill="#9399c9" stroke="#9399c9" stroke-width="1.51"/><path d="M1022,-18L933,-6L958,63Z" fill="#7b6598" stroke="#7b6598" stroke-width="1.51"/><path d="M505,37L406,97L428,118Z" fill="#7b2c8c" stroke="#7b2c8c" stroke-width="1.51"/><path d="M428,118L349,152L413,223Z" fill="#852a96" stroke="#852a96" stroke-width="1.51"/><path d="M406,97L349,152L428,118Z" fill="#82238e" stroke="#82238e" stroke-width="1.51"/><path d="M958,63L933,-6L857,76Z" fill="#7a619f" stroke="#7a619f" stroke-width="1.51"/><path d="M1137,102L1001,145L1088,185Z" fill="#9b79b4" stroke="#9b79b4" stroke-width="1.51"/><path d="M647,1047L729,993L670,947Z" fill="#8eb5dd" stroke="#8eb5dd" stroke-width="1.51"/><path d="M670,947L729,993L777,927Z" fill="#86b8e1" stroke="#86b8e1" stroke-width="1.51"/><path d="M889,-43L736,-51L857,76Z" fill="#695595" stroke="#695595" stroke-width="1.51"/><path d="M569,-67L505,37L626,32Z" fill="#693987" stroke="#693987" stroke-width="1.51"/><path d="M378,763L337,813L424,834Z" fill="#a08dbe" stroke="#a08dbe" stroke-width="1.51"/><path d="M424,834L383,936L487,892Z" fill="#a096c3" stroke="#a096c3" stroke-width="1.51"/><path d="M271,560L272,701L314,590Z" fill="#8e6cb3" stroke="#8e6cb3" stroke-width="1.51"/><path d="M1285,620L1275,459L1189,549Z" fill="#8dc1e1" stroke="#8dc1e1" stroke-width="1.51"/><path d="M1219,320L1247,296L1194,249Z" fill="#9699c9" stroke="#9699c9" stroke-width="1.51"/><path d="M170,620L243,719L272,701Z" fill="#9173ab" stroke="#9173ab" stroke-width="1.51"/><path d="M190,474L214,492L296,406Z" fill="#6e53ab" stroke="#6e53ab" stroke-width="1.51"/><path d="M208,376L296,406L217,323Z" fill="#7644a1" stroke="#7644a1" stroke-width="1.51"/><path d="M272,701L337,813L368,744Z" fill="#a085b8" stroke="#a085b8" stroke-width="1.51"/><path d="M1175,117L1088,185L1107,217Z" fill="#9e82b7" stroke="#9e82b7" stroke-width="1.51"/><path d="M1290,384L1247,296L1219,320Z" fill="#92a1cf" stroke="#92a1cf" stroke-width="1.51"/><path d="M206,188L334,263L349,152Z" fill="#871f91" stroke="#871f91" stroke-width="1.51"/><path d="M505,37L483,8L406,97Z" fill="#742d86" stroke="#742d86" stroke-width="1.51"/><path d="M604,-75L626,32L673,10Z" fill="#62408b" stroke="#62408b" stroke-width="1.51"/><path d="M933,-6L889,-43L857,76Z" fill="#725c98" stroke="#725c98" stroke-width="1.51"/><path d="M1175,117L1107,217L1194,249Z" fill="#9f89bb" stroke="#9f89bb" stroke-width="1.51"/><path d="M933,-6L895,-80L889,-43Z" fill="#6c5a8d" stroke="#6c5a8d" stroke-width="1.51"/><path d="M1137,102L1063,33L1001,145Z" fill="#9274a9" stroke="#9274a9" stroke-width="1.51"/><path d="M217,323L296,406L300,279Z" fill="#7c3ea0" stroke="#7c3ea0" stroke-width="1.51"/><path d="M209,257L217,323L300,279Z" fill="#7d3396" stroke="#7d3396" stroke-width="1.51"/><path d="M1275,459L1290,384L1178,445Z" fill="#80afdd" stroke="#80afdd" stroke-width="1.51"/><path d="M1181,850L1218,761L1120,736Z" fill="#ade0df" stroke="#ade0df" stroke-width="1.51"/><path d="M1194,639L1285,620L1189,549Z" fill="#96c9e0" stroke="#96c9e0" stroke-width="1.51"/><path d="M1275,459L1372,387L1290,384Z" fill="#88aeda" stroke="#88aeda" stroke-width="1.51"/><path d="M170,620L272,701L271,560Z" fill="#8a6bac" stroke="#8a6bac" stroke-width="1.51"/><path d="M208,376L190,474L296,406Z" fill="#704da7" stroke="#704da7" stroke-width="1.51"/><path d="M164,380L190,474L208,376Z" fill="#6d499f" stroke="#6d499f" stroke-width="1.51"/><path d="M1137,102L1155,61L1063,33Z" fill="#9277a3" stroke="#9277a3" stroke-width="1.51"/><path d="M1277,196L1175,117L1194,249Z" fill="#a289ba" stroke="#a289ba" stroke-width="1.51"/><path d="M1277,196L1194,249L1247,296Z" fill="#9c93c2" stroke="#9c93c2" stroke-width="1.51"/><path d="M272,701L243,719L337,813Z" fill="#a27fb3" stroke="#a27fb3" stroke-width="1.51"/><path d="M170,620L271,560L214,492Z" fill="#7d60a9" stroke="#7d60a9" stroke-width="1.51"/><path d="M1313,658L1285,620L1194,639Z" fill="#9dd0e0" stroke="#9dd0e0" stroke-width="1.51"/><path d="M1108,0L1022,-18L1063,33Z" fill="#846d97" stroke="#846d97" stroke-width="1.51"/><path d="M1063,33L1022,-18L958,63Z" fill="#826a9b" stroke="#826a9b" stroke-width="1.51"/><path d="M736,-51L604,-75L673,10Z" fill="#5b4389" stroke="#5b4389" stroke-width="1.51"/><path d="M728,-94L604,-75L736,-51Z" fill="#554384" stroke="#554384" stroke-width="1.51"/><path d="M825,-91L728,-94L736,-51Z" fill="#574a85" stroke="#574a85" stroke-width="1.51"/><path d="M825,-91L736,-51L889,-43Z" fill="#605189" stroke="#605189" stroke-width="1.51"/><path d="M604,-75L569,-67L626,32Z" fill="#613b82" stroke="#613b82" stroke-width="1.51"/><path d="M895,-80L825,-91L889,-43Z" fill="#645588" stroke="#645588" stroke-width="1.51"/><path d="M991,-136L895,-80L933,-6Z" fill="#6a5b87" stroke="#6a5b87" stroke-width="1.51"/><path d="M1218,761L1313,658L1194,639Z" fill="#a4d7e0" stroke="#a4d7e0" stroke-width="1.51"/><path d="M1069,838L1181,850L1120,736Z" fill="#abdee0" stroke="#abdee0" stroke-width="1.51"/><path d="M1060,956L1069,838L943,894Z" fill="#a5d7e0" stroke="#a5d7e0" stroke-width="1.51"/><path d="M1060,956L943,894L956,1014Z" fill="#a4d5e1" stroke="#a4d5e1" stroke-width="1.51"/><path d="M956,1014L943,894L828,955Z" fill="#9ccce1" stroke="#9ccce1" stroke-width="1.51"/><path d="M206,188L209,257L300,279Z" fill="#80288f" stroke="#80288f" stroke-width="1.51"/><path d="M217,323L164,380L208,376Z" fill="#734199" stroke="#734199" stroke-width="1.51"/><path d="M369,33L349,152L406,97Z" fill="#7f1e87" stroke="#7f1e87" stroke-width="1.51"/><path d="M483,8L369,33L406,97Z" fill="#762581" stroke="#762581" stroke-width="1.51"/><path d="M396,-37L369,33L483,8Z" fill="#702379" stroke="#702379" stroke-width="1.51"/><path d="M729,993L849,1041L828,955Z" fill="#92c2e1" stroke="#92c2e1" stroke-width="1.51"/><path d="M1175,117L1155,61L1137,102Z" fill="#9b7da9" stroke="#9b7da9" stroke-width="1.51"/><path d="M1164,15L1155,61L1261,34Z" fill="#937a9d" stroke="#937a9d" stroke-width="1.51"/><path d="M849,1041L956,1014L828,955Z" fill="#9ccbe2" stroke="#9ccbe2" stroke-width="1.51"/><path d="M561,1030L670,947L622,897Z" fill="#93add7" stroke="#93add7" stroke-width="1.51"/><path d="M729,993L647,1047L849,1041Z" fill="#8ebde2" stroke="#8ebde2" stroke-width="1.51"/><path d="M561,1030L593,877L487,892Z" fill="#99a4cf" stroke="#99a4cf" stroke-width="1.51"/><path d="M1073,976L1090,946L1060,956Z" fill="#afdfe1" stroke="#afdfe1" stroke-width="1.51"/><path d="M1060,956L1090,946L1069,838Z" fill="#abdce1" stroke="#abdce1" stroke-width="1.51"/><path d="M495,1024L561,1030L487,892Z" fill="#9fa3cc" stroke="#9fa3cc" stroke-width="1.51"/><path d="M127,339L164,380L217,323Z" fill="#713d94" stroke="#713d94" stroke-width="1.51"/><path d="M113,551L170,620L214,492Z" fill="#775da2" stroke="#775da2" stroke-width="1.51"/><path d="M337,813L383,936L424,834Z" fill="#a290be" stroke="#a290be" stroke-width="1.51"/><path d="M317,956L383,936L337,813Z" fill="#a88dbb" stroke="#a88dbb" stroke-width="1.51"/><path d="M148,660L170,620L113,551Z" fill="#7e659f" stroke="#7e659f" stroke-width="1.51"/><path d="M243,719L245,863L337,813Z" fill="#a482b2" stroke="#a482b2" stroke-width="1.51"/><path d="M825,-91L716,-122L728,-94Z" fill="#524881" stroke="#524881" stroke-width="1.51"/><path d="M728,-94L716,-122L604,-75Z" fill="#53417e" stroke="#53417e" stroke-width="1.51"/><path d="M604,-75L478,-100L569,-67Z" fill="#5d3375" stroke="#5d3375" stroke-width="1.51"/><path d="M991,-136L716,-122L825,-91Z" fill="#5b4f7f" stroke="#5b4f7f" stroke-width="1.51"/><path d="M1155,61L1108,0L1063,33Z" fill="#8c749c" stroke="#8c749c" stroke-width="1.51"/><path d="M1022,-18L991,-136L933,-6Z" fill="#72618b" stroke="#72618b" stroke-width="1.51"/><path d="M1418,428L1372,387L1275,459Z" fill="#86b2dd" stroke="#86b2dd" stroke-width="1.51"/><path d="M1318,733L1313,658L1218,761Z" fill="#aadde0" stroke="#aadde0" stroke-width="1.51"/><path d="M1355,233L1277,196L1247,296Z" fill="#9f93c2" stroke="#9f93c2" stroke-width="1.51"/><path d="M1155,61L1164,15L1108,0Z" fill="#8f779b" stroke="#8f779b" stroke-width="1.51"/><path d="M1361,298L1247,296L1290,384Z" fill="#95a0ce" stroke="#95a0ce" stroke-width="1.51"/><path d="M1026,1041L1073,976L1060,956Z" fill="#aedee1" stroke="#aedee1" stroke-width="1.51"/><path d="M1090,946L1159,927L1069,838Z" fill="#aee0e0" stroke="#aee0e0" stroke-width="1.51"/><path d="M383,936L495,1024L487,892Z" fill="#a29bc6" stroke="#a29bc6" stroke-width="1.51"/><path d="M561,1030L430,1040L647,1047Z" fill="#9fa8d0" stroke="#9fa8d0" stroke-width="1.51"/><path d="M148,248L127,339L217,323Z" fill="#74358d" stroke="#74358d" stroke-width="1.51"/><path d="M196,70L206,188L349,152Z" fill="#840082" stroke="#840082" stroke-width="1.51"/><path d="M1334,774L1318,733L1218,761Z" fill="#b0e3e0" stroke="#b0e3e0" stroke-width="1.51"/><path d="M1165,998L1159,927L1090,946Z" fill="#b5e6e0" stroke="#b5e6e0" stroke-width="1.51"/><path d="M369,33L196,70L349,152Z" fill="#80087e" stroke="#80087e" stroke-width="1.51"/><path d="M429,-96L396,-37L483,8Z" fill="#682573" stroke="#682573" stroke-width="1.51"/><path d="M478,-100L483,8L569,-67Z" fill="#642f77" stroke="#642f77" stroke-width="1.51"/><path d="M1261,34L1155,61L1175,117Z" fill="#997da4" stroke="#997da4" stroke-width="1.51"/><path d="M1089,-125L991,-136L1022,-18Z" fill="#726484" stroke="#726484" stroke-width="1.51"/><path d="M170,620L148,660L243,719Z" fill="#8b6fa5" stroke="#8b6fa5" stroke-width="1.51"/><path d="M113,551L214,492L190,474Z" fill="#7057a2" stroke="#7057a2" stroke-width="1.51"/><path d="M1334,774L1218,761L1314,856Z" fill="#b3e5e0" stroke="#b3e5e0" stroke-width="1.51"/><path d="M1318,733L1339,686L1313,658Z" fill="#a8dae0" stroke="#a8dae0" stroke-width="1.51"/><path d="M1382,532L1275,459L1285,620Z" fill="#8fc1e1" stroke="#8fc1e1" stroke-width="1.51"/><path d="M716,-122L478,-100L604,-75Z" fill="#583777" stroke="#583777" stroke-width="1.51"/><path d="M164,380L111,427L190,474Z" fill="#674a9d" stroke="#674a9d" stroke-width="1.51"/><path d="M148,248L217,323L209,257Z" fill="#792f8d" stroke="#792f8d" stroke-width="1.51"/><path d="M1382,532L1285,620L1386,583Z" fill="#97c9e0" stroke="#97c9e0" stroke-width="1.51"/><path d="M1073,976L1165,998L1090,946Z" fill="#b3e3e0" stroke="#b3e3e0" stroke-width="1.51"/><path d="M956,1014L1026,1041L1060,956Z" fill="#abdae1" stroke="#abdae1" stroke-width="1.51"/><path d="M849,1041L1026,1041L956,1014Z" fill="#a5d3e1" stroke="#a5d3e1" stroke-width="1.51"/><path d="M647,1047L1026,1041L849,1041Z" fill="#9ac8e2" stroke="#9ac8e2" stroke-width="1.51"/><path d="M149,806L245,863L243,719Z" fill="#9d7fa9" stroke="#9d7fa9" stroke-width="1.51"/><path d="M383,936L430,1040L495,1024Z" fill="#a69ac4" stroke="#a69ac4" stroke-width="1.51"/><path d="M127,339L111,427L164,380Z" fill="#6a4294" stroke="#6a4294" stroke-width="1.51"/><path d="M87,460L113,551L190,474Z" fill="#6a549c" stroke="#6a549c" stroke-width="1.51"/><path d="M206,188L148,248L209,257Z" fill="#7b2487" stroke="#7b2487" stroke-width="1.51"/><path d="M128,174L148,248L206,188Z" fill="#7a1b7f" stroke="#7a1b7f" stroke-width="1.51"/><path d="M148,660L156,720L243,719Z" fill="#9074a5" stroke="#9074a5" stroke-width="1.51"/><path d="M149,806L156,720L111,779Z" fill="#937a9e" stroke="#937a9e" stroke-width="1.51"/><path d="M1386,583L1285,620L1313,658Z" fill="#9dcfe0" stroke="#9dcfe0" stroke-width="1.51"/><path d="M1372,387L1361,298L1290,384Z" fill="#92a7d2" stroke="#92a7d2" stroke-width="1.51"/><path d="M1277,196L1313,157L1175,117Z" fill="#a685b5" stroke="#a685b5" stroke-width="1.51"/><path d="M245,863L317,956L337,813Z" fill="#a987b6" stroke="#a987b6" stroke-width="1.51"/><path d="M351,1021L430,1040L383,936Z" fill="#aa95bf" stroke="#aa95bf" stroke-width="1.51"/><path d="M495,1024L430,1040L561,1030Z" fill="#a3a2cb" stroke="#a3a2cb" stroke-width="1.51"/><path d="M1355,233L1313,157L1277,196Z" fill="#a58dbb" stroke="#a58dbb" stroke-width="1.51"/><path d="M206,27L196,70L369,33Z" fill="#770071" stroke="#770071" stroke-width="1.51"/><path d="M478,-100L429,-96L483,8Z" fill="#642871" stroke="#642871" stroke-width="1.51"/><path d="M325,-136L429,-96L478,-100Z" fill="#601e63" stroke="#601e63" stroke-width="1.51"/><path d="M1339,686L1386,583L1313,658Z" fill="#a1d3e0" stroke="#a1d3e0" stroke-width="1.51"/><path d="M1382,532L1418,428L1275,459Z" fill="#86b9e0" stroke="#86b9e0" stroke-width="1.51"/><path d="M1416,594L1386,583L1339,686Z" fill="#a0d1e1" stroke="#a0d1e1" stroke-width="1.51"/><path d="M1361,298L1355,233L1247,296Z" fill="#9c9ac7" stroke="#9c9ac7" stroke-width="1.51"/><path d="M1397,187L1355,233L1444,194Z" fill="#a891bd" stroke="#a891bd" stroke-width="1.51"/><path d="M895,-80L991,-136L825,-91Z" fill="#625682" stroke="#625682" stroke-width="1.51"/><path d="M1089,-125L1022,-18L1108,0Z" fill="#7c6b8c" stroke="#7c6b8c" stroke-width="1.51"/><path d="M111,427L87,460L190,474Z" fill="#634e9c" stroke="#634e9c" stroke-width="1.51"/><path d="M88,690L156,720L148,660Z" fill="#88709d" stroke="#88709d" stroke-width="1.51"/><path d="M50,356L87,460L111,427Z" fill="#614591" stroke="#614591" stroke-width="1.51"/><path d="M50,356L111,427L127,339Z" fill="#673f8d" stroke="#673f8d" stroke-width="1.51"/><path d="M1318,733L1334,774L1339,686Z" fill="#aee0e0" stroke="#aee0e0" stroke-width="1.51"/><path d="M1314,856L1218,761L1181,850Z" fill="#b2e4e0" stroke="#b2e4e0" stroke-width="1.51"/><path d="M1306,901L1314,856L1181,850Z" fill="#b6e7e0" stroke="#b6e7e0" stroke-width="1.51"/><path d="M1026,1041L1165,998L1073,976Z" fill="#b2e2e1" stroke="#b2e2e1" stroke-width="1.51"/><path d="M1425,491L1418,428L1382,532Z" fill="#8abce1" stroke="#8abce1" stroke-width="1.51"/><path d="M1372,387L1452,320L1361,298Z" fill="#97a5d0" stroke="#97a5d0" stroke-width="1.51"/><path d="M317,956L351,1021L383,936Z" fill="#ab90bb" stroke="#ab90bb" stroke-width="1.51"/><path d="M262,1048L351,1021L317,956Z" fill="#b08db8" stroke="#b08db8" stroke-width="1.51"/><path d="M1180,-120L1089,-125L1108,0Z" fill="#7c6e85" stroke="#7c6e85" stroke-width="1.51"/><path d="M1313,157L1261,34L1175,117Z" fill="#9f80ab" stroke="#9f80ab" stroke-width="1.51"/><path d="M1334,84L1261,34L1313,157Z" fill="#a081a9" stroke="#a081a9" stroke-width="1.51"/><path d="M1416,594L1382,532L1386,583Z" fill="#98c9e1" stroke="#98c9e1" stroke-width="1.51"/><path d="M1416,594L1425,491L1382,532Z" fill="#94c5e1" stroke="#94c5e1" stroke-width="1.51"/><path d="M31,254L50,356L127,339Z" fill="#6a3482" stroke="#6a3482" stroke-width="1.51"/><path d="M323,-62L369,33L396,-37Z" fill="#6e186f" stroke="#6e186f" stroke-width="1.51"/><path d="M429,-96L323,-62L396,-37Z" fill="#671a69" stroke="#671a69" stroke-width="1.51"/><path d="M1486,649L1416,594L1339,686Z" fill="#a5d5e1" stroke="#a5d5e1" stroke-width="1.51"/><path d="M245,863L217,951L317,956Z" fill="#a986b1" stroke="#a986b1" stroke-width="1.51"/><path d="M156,720L149,806L243,719Z" fill="#977ba5" stroke="#977ba5" stroke-width="1.51"/><path d="M88,690L148,660L113,551Z" fill="#7e679c" stroke="#7e679c" stroke-width="1.51"/><path d="M196,70L128,174L206,188Z" fill="#7e0079" stroke="#7e0079" stroke-width="1.51"/><path d="M1306,901L1181,850L1159,927Z" fill="#b5e7e0" stroke="#b5e7e0" stroke-width="1.51"/><path d="M1334,774L1421,786L1339,686Z" fill="#b3e4e0" stroke="#b3e4e0" stroke-width="1.51"/><path d="M1180,-120L1108,0L1164,15Z" fill="#86748e" stroke="#86748e" stroke-width="1.51"/><path d="M-34,581L88,690L113,551Z" fill="#746093" stroke="#746093" stroke-width="1.51"/><path d="M111,43L70,128L128,174Z" fill="#72006a" stroke="#72006a" stroke-width="1.51"/><path d="M232,-34L206,27L369,33Z" fill="#73006c" stroke="#73006c" stroke-width="1.51"/><path d="M88,690L111,779L156,720Z" fill="#8d759b" stroke="#8d759b" stroke-width="1.51"/><path d="M156,939L217,951L245,863Z" fill="#a383a9" stroke="#a383a9" stroke-width="1.51"/><path d="M87,460L5,520L113,551Z" fill="#675394" stroke="#675394" stroke-width="1.51"/><path d="M31,254L127,339L148,248Z" fill="#6f2e82" stroke="#6f2e82" stroke-width="1.51"/><path d="M1261,34L1180,-120L1164,15Z" fill="#8a7691" stroke="#8a7691" stroke-width="1.51"/><path d="M1397,187L1334,84L1313,157Z" fill="#aa86b3" stroke="#aa86b3" stroke-width="1.51"/><path d="M1397,187L1313,157L1355,233Z" fill="#a78ebb" stroke="#a78ebb" stroke-width="1.51"/><path d="M1165,998L1306,901L1159,927Z" fill="#b8e8e0" stroke="#b8e8e0" stroke-width="1.51"/><path d="M1314,856L1338,868L1334,774Z" fill="#b7e7e0" stroke="#b7e7e0" stroke-width="1.51"/><path d="M1452,320L1355,233L1361,298Z" fill="#9e9dc9" stroke="#9e9dc9" stroke-width="1.51"/><path d="M1452,320L1372,387L1418,428Z" fill="#91acd7" stroke="#91acd7" stroke-width="1.51"/><path d="M156,939L245,863L149,806Z" fill="#9e80a5" stroke="#9e80a5" stroke-width="1.51"/><path d="M1329,892L1338,868L1314,856Z" fill="#b9e9e0" stroke="#b9e9e0" stroke-width="1.51"/><path d="M1306,901L1329,892L1314,856Z" fill="#b9e9e0" stroke="#b9e9e0" stroke-width="1.51"/><path d="M1406,1013L1329,892L1306,901Z" fill="#beece1" stroke="#beece1" stroke-width="1.51"/><path d="M323,-62L232,-34L369,33Z" fill="#70086b" stroke="#70086b" stroke-width="1.51"/><path d="M70,128L31,254L128,174Z" fill="#721471" stroke="#721471" stroke-width="1.51"/><path d="M193,-94L232,-34L323,-62Z" fill="#67005c" stroke="#67005c" stroke-width="1.51"/><path d="M1534,422L1418,428L1425,491Z" fill="#88b7e1" stroke="#88b7e1" stroke-width="1.51"/><path d="M1534,422L1452,320L1418,428Z" fill="#92afd8" stroke="#92afd8" stroke-width="1.51"/><path d="M1295,-100L1180,-120L1261,34Z" fill="#85748a" stroke="#85748a" stroke-width="1.51"/><path d="M1089,-125L1403,-137L991,-136Z" fill="#776d7b" stroke="#776d7b" stroke-width="1.51"/><path d="M429,-96L325,-136L323,-62Z" fill="#641461" stroke="#641461" stroke-width="1.51"/><path d="M716,-122L325,-136L478,-100Z" fill="#5b2b6a" stroke="#5b2b6a" stroke-width="1.51"/><path d="M203,-151L325,-136L716,-122Z" fill="#5c1d5f" stroke="#5c1d5f" stroke-width="1.51"/><path d="M-35,444L5,520L87,460Z" fill="#5c4c8d" stroke="#5c4c8d" stroke-width="1.51"/><path d="M-6,743L90,877L111,779Z" fill="#8d7894" stroke="#8d7894" stroke-width="1.51"/><path d="M1416,594L1566,601L1425,491Z" fill="#9acae1" stroke="#9acae1" stroke-width="1.51"/><path d="M1338,868L1421,786L1334,774Z" fill="#b7e7e1" stroke="#b7e7e1" stroke-width="1.51"/><path d="M1457,868L1421,786L1338,868Z" fill="#baeae1" stroke="#baeae1" stroke-width="1.51"/><path d="M50,356L-35,444L87,460Z" fill="#5d448b" stroke="#5d448b" stroke-width="1.51"/><path d="M128,174L31,254L148,248Z" fill="#73207a" stroke="#73207a" stroke-width="1.51"/><path d="M128,174L196,70L111,43Z" fill="#73006c" stroke="#73006c" stroke-width="1.51"/><path d="M1334,84L1320,-5L1261,34Z" fill="#977d9e" stroke="#977d9e" stroke-width="1.51"/><path d="M1359,-65L1320,-5L1475,-31Z" fill="#8f7a90" stroke="#8f7a90" stroke-width="1.51"/><path d="M1442,152L1334,84L1397,187Z" fill="#ab87b3" stroke="#ab87b3" stroke-width="1.51"/><path d="M90,877L156,939L149,806Z" fill="#987e9e" stroke="#987e9e" stroke-width="1.51"/><path d="M217,951L262,1048L317,956Z" fill="#ad88b2" stroke="#ad88b2" stroke-width="1.51"/><path d="M90,877L149,806L111,779Z" fill="#937b9c" stroke="#937b9c" stroke-width="1.51"/><path d="M121,1014L262,1048L217,951Z" fill="#a786a9" stroke="#a786a9" stroke-width="1.51"/><path d="M351,1021L262,1048L430,1040Z" fill="#af92bb" stroke="#af92bb" stroke-width="1.51"/><path d="M430,1040L262,1048L647,1047Z" fill="#a89ec6" stroke="#a89ec6" stroke-width="1.51"/><path d="M1452,320L1444,194L1355,233Z" fill="#a398c4" stroke="#a398c4" stroke-width="1.51"/><path d="M111,43L196,70L206,27Z" fill="#6f0066" stroke="#6f0066" stroke-width="1.51"/><path d="M192,-47L206,27L232,-34Z" fill="#69005f" stroke="#69005f" stroke-width="1.51"/><path d="M193,-94L192,-47L232,-34Z" fill="#630057" stroke="#630057" stroke-width="1.51"/><path d="M1421,786L1486,649L1339,686Z" fill="#aedfe0" stroke="#aedfe0" stroke-width="1.51"/><path d="M1533,111L1442,152L1444,194Z" fill="#af8ab6" stroke="#af8ab6" stroke-width="1.51"/><path d="M192,-47L111,43L206,27Z" fill="#69005e" stroke="#69005e" stroke-width="1.51"/><path d="M1517,293L1444,194L1452,320Z" fill="#a39dc7" stroke="#a39dc7" stroke-width="1.51"/><path d="M1444,194L1442,152L1397,187Z" fill="#ab8db9" stroke="#ab8db9" stroke-width="1.51"/><path d="M156,939L121,1014L217,951Z" fill="#a183a3" stroke="#a183a3" stroke-width="1.51"/><path d="M-6,743L111,779L88,690Z" fill="#887394" stroke="#887394" stroke-width="1.51"/><path d="M31,254L-10,311L50,356Z" fill="#66307b" stroke="#66307b" stroke-width="1.51"/><path d="M-23,260L-10,311L31,254Z" fill="#662973" stroke="#662973" stroke-width="1.51"/><path d="M-10,311L-35,444L50,356Z" fill="#5e3b80" stroke="#5e3b80" stroke-width="1.51"/><path d="M5,520L-34,581L113,551Z" fill="#68568f" stroke="#68568f" stroke-width="1.51"/><path d="M-113,481L-34,581L5,520Z" fill="#5e5085" stroke="#5e5085" stroke-width="1.51"/><path d="M1439,952L1457,868L1338,868Z" fill="#beece1" stroke="#beece1" stroke-width="1.51"/><path d="M1165,998L1299,1033L1306,901Z" fill="#bcebe1" stroke="#bcebe1" stroke-width="1.51"/><path d="M1026,1041L1299,1033L1165,998Z" fill="#bbeae1" stroke="#bbeae1" stroke-width="1.51"/><path d="M1578,490L1534,422L1425,491Z" fill="#8cbce2" stroke="#8cbce2" stroke-width="1.51"/><path d="M192,-47L58,-57L111,43Z" fill="#5f0053" stroke="#5f0053" stroke-width="1.51"/><path d="M325,-136L193,-94L323,-62Z" fill="#65005a" stroke="#65005a" stroke-width="1.51"/><path d="M1534,422L1517,293L1452,320Z" fill="#9aa9d2" stroke="#9aa9d2" stroke-width="1.51"/><path d="M1486,649L1566,601L1416,594Z" fill="#a3d2e1" stroke="#a3d2e1" stroke-width="1.51"/><path d="M1567,789L1519,645L1486,649Z" fill="#b1e0e1" stroke="#b1e0e1" stroke-width="1.51"/><path d="M1567,789L1486,649L1421,786Z" fill="#b7e7e0" stroke="#b7e7e0" stroke-width="1.51"/><path d="M1320,-5L1295,-100L1261,34Z" fill="#8d7891" stroke="#8d7891" stroke-width="1.51"/><path d="M1359,-65L1295,-100L1320,-5Z" fill="#89778b" stroke="#89778b" stroke-width="1.51"/><path d="M14,36L70,128L111,43Z" fill="#67005d" stroke="#67005d" stroke-width="1.51"/><path d="M-50,163L31,254L70,128Z" fill="#6c1169" stroke="#6c1169" stroke-width="1.51"/><path d="M-50,163L-23,260L31,254Z" fill="#671e6a" stroke="#671e6a" stroke-width="1.51"/><path d="M-140,419L-113,481L-35,444Z" fill="#4c437d" stroke="#4c437d" stroke-width="1.51"/><path d="M-38,654L-6,743L88,690Z" fill="#7d6b8d" stroke="#7d6b8d" stroke-width="1.51"/><path d="M-34,581L-38,654L88,690Z" fill="#74638c" stroke="#74638c" stroke-width="1.51"/><path d="M-125,610L-38,654L-34,581Z" fill="#695b82" stroke="#695b82" stroke-width="1.51"/><path d="M1464,79L1320,-5L1334,84Z" fill="#9d80a2" stroke="#9d80a2" stroke-width="1.51"/><path d="M1517,293L1531,265L1444,194Z" fill="#a69ac4" stroke="#a69ac4" stroke-width="1.51"/><path d="M1534,422L1531,265L1517,293Z" fill="#9ea7d0" stroke="#9ea7d0" stroke-width="1.51"/><path d="M1439,952L1338,868L1329,892Z" fill="#bcebe1" stroke="#bcebe1" stroke-width="1.51"/><path d="M1464,79L1334,84L1442,152Z" fill="#a685ad" stroke="#a685ad" stroke-width="1.51"/><path d="M1533,111L1464,79L1442,152Z" fill="#aa87ae" stroke="#aa87ae" stroke-width="1.51"/><path d="M58,-57L14,36L111,43Z" fill="#5d0051" stroke="#5d0051" stroke-width="1.51"/><path d="M325,-136L203,-151L193,-94Z" fill="#5d0050" stroke="#5d0050" stroke-width="1.51"/><path d="M991,-136L203,-151L716,-122Z" fill="#503973" stroke="#503973" stroke-width="1.51"/><path d="M87,983L156,939L90,877Z" fill="#997f9b" stroke="#997f9b" stroke-width="1.51"/><path d="M87,983L121,1014L156,939Z" fill="#9c819d" stroke="#9c819d" stroke-width="1.51"/><path d="M1519,645L1566,601L1486,649Z" fill="#a8d6e1" stroke="#a8d6e1" stroke-width="1.51"/><path d="M1534,422L1578,490L1531,265Z" fill="#95b2d9" stroke="#95b2d9" stroke-width="1.51"/><path d="M1567,789L1566,601L1519,645Z" fill="#b0dee1" stroke="#b0dee1" stroke-width="1.51"/><path d="M31,913L87,983L90,877Z" fill="#947c96" stroke="#947c96" stroke-width="1.51"/><path d="M1566,601L1578,490L1425,491Z" fill="#97c5e2" stroke="#97c5e2" stroke-width="1.51"/><path d="M-56,802L31,913L90,877Z" fill="#8b778e" stroke="#8b778e" stroke-width="1.51"/><path d="M-56,802L90,877L-6,743Z" fill="#87758d" stroke="#87758d" stroke-width="1.51"/><path d="M1457,868L1567,789L1421,786Z" fill="#bcebe1" stroke="#bcebe1" stroke-width="1.51"/><path d="M1406,1013L1439,952L1329,892Z" fill="#c0eee1" stroke="#c0eee1" stroke-width="1.51"/><path d="M58,-57L192,-47L86,-106Z" fill="#570049" stroke="#570049" stroke-width="1.51"/><path d="M-68,120L-50,163L70,128Z" fill="#69005f" stroke="#69005f" stroke-width="1.51"/><path d="M-140,419L-35,444L-10,311Z" fill="#563c7a" stroke="#563c7a" stroke-width="1.51"/><path d="M-35,444L-113,481L5,520Z" fill="#564a84" stroke="#564a84" stroke-width="1.51"/><path d="M1299,1033L1406,1013L1306,901Z" fill="#c0eee1" stroke="#c0eee1" stroke-width="1.51"/><path d="M-129,747L-56,802L-6,743Z" fill="#7c6f82" stroke="#7c6f82" stroke-width="1.51"/><path d="M-140,419L-10,311L-131,303Z" fill="#573370" stroke="#573370" stroke-width="1.51"/><path d="M-129,747L-6,743L-38,654Z" fill="#786a83" stroke="#786a83" stroke-width="1.51"/><path d="M1531,265L1533,111L1444,194Z" fill="#ad91bb" stroke="#ad91bb" stroke-width="1.51"/><path d="M1475,-31L1414,-104L1359,-65Z" fill="#8a7889" stroke="#8a7889" stroke-width="1.51"/><path d="M1548,87L1533,111L1531,265Z" fill="#b18cb7" stroke="#b18cb7" stroke-width="1.51"/><path d="M86,-106L192,-47L193,-94Z" fill="#5b004d" stroke="#5b004d" stroke-width="1.51"/><path d="M14,36L-68,120L70,128Z" fill="#65005a" stroke="#65005a" stroke-width="1.51"/><path d="M203,-151L86,-106L193,-94Z" fill="#560047" stroke="#560047" stroke-width="1.51"/><path d="M-56,802L-22,902L31,913Z" fill="#887689" stroke="#887689" stroke-width="1.51"/><path d="M31,913L-54,982L87,983Z" fill="#907b8f" stroke="#907b8f" stroke-width="1.51"/><path d="M87,983L-69,1020L121,1014Z" fill="#957e93" stroke="#957e93" stroke-width="1.51"/><path d="M1566,601L1576,838L1578,490Z" fill="#acd9e1" stroke="#acd9e1" stroke-width="1.51"/><path d="M1576,838L1567,789L1457,868Z" fill="#bfede1" stroke="#bfede1" stroke-width="1.51"/><path d="M1576,838L1457,868L1569,910Z" fill="#c1efe1" stroke="#c1efe1" stroke-width="1.51"/><path d="M-113,481L-125,610L-34,581Z" fill="#5d527f" stroke="#5d527f" stroke-width="1.51"/><path d="M-56,802L-66,836L-22,902Z" fill="#827384" stroke="#827384" stroke-width="1.51"/><path d="M1475,-31L1320,-5L1464,79Z" fill="#987e9a" stroke="#987e9a" stroke-width="1.51"/><path d="M1359,-65L1403,-137L1295,-100Z" fill="#837482" stroke="#837482" stroke-width="1.51"/><path d="M1295,-100L1403,-137L1180,-120Z" fill="#7e717e" stroke="#7e717e" stroke-width="1.51"/><path d="M1180,-120L1403,-137L1089,-125Z" fill="#796f7d" stroke="#796f7d" stroke-width="1.51"/><path d="M-41,-42L14,36L58,-57Z" fill="#540045" stroke="#540045" stroke-width="1.51"/><path d="M-100,61L-68,120L14,36Z" fill="#5c004f" stroke="#5c004f" stroke-width="1.51"/><path d="M-131,303L-10,311L-23,260Z" fill="#5f2b6e" stroke="#5f2b6e" stroke-width="1.51"/><path d="M1515,-20L1475,-31L1464,79Z" fill="#997f99" stroke="#997f99" stroke-width="1.51"/><path d="M-131,303L-23,260L-142,211Z" fill="#5d2364" stroke="#5d2364" stroke-width="1.51"/><path d="M-113,481L-140,419L-125,610Z" fill="#514979" stroke="#514979" stroke-width="1.51"/><path d="M-129,747L-66,836L-56,802Z" fill="#7c6f7f" stroke="#7c6f7f" stroke-width="1.51"/><path d="M1533,111L1548,87L1464,79Z" fill="#a886aa" stroke="#a886aa" stroke-width="1.51"/><path d="M1578,490L1548,87L1531,265Z" fill="#a4a1c9" stroke="#a4a1c9" stroke-width="1.51"/><path d="M-142,211L-23,260L-50,163Z" fill="#621861" stroke="#621861" stroke-width="1.51"/><path d="M1499,-125L1403,-137L1414,-104Z" fill="#82757e" stroke="#82757e" stroke-width="1.51"/><path d="M1414,-104L1403,-137L1359,-65Z" fill="#837583" stroke="#837583" stroke-width="1.51"/><path d="M991,-136L1403,-137L203,-151Z" fill="#5a507a" stroke="#5a507a" stroke-width="1.51"/><path d="M-125,610L-137,671L-38,654Z" fill="#695e7e" stroke="#695e7e" stroke-width="1.51"/><path d="M-140,419L-137,671L-125,610Z" fill="#5a5179" stroke="#5a5179" stroke-width="1.51"/><path d="M1567,789L1576,838L1566,601Z" fill="#bae9e1" stroke="#bae9e1" stroke-width="1.51"/><path d="M1569,910L1457,868L1439,952Z" fill="#c2efe1" stroke="#c2efe1" stroke-width="1.51"/><path d="M1406,1013L1469,1028L1439,952Z" fill="#c5f1e1" stroke="#c5f1e1" stroke-width="1.51"/><path d="M1299,1033L1469,1028L1406,1013Z" fill="#c4f1e2" stroke="#c4f1e2" stroke-width="1.51"/><path d="M1475,-31L1499,-125L1414,-104Z" fill="#897886" stroke="#897886" stroke-width="1.51"/><path d="M1548,87L1515,-20L1464,79Z" fill="#a083a1" stroke="#a083a1" stroke-width="1.51"/><path d="M-66,836L-85,883L-22,902Z" fill="#837483" stroke="#837483" stroke-width="1.51"/><path d="M-137,671L-129,747L-38,654Z" fill="#6f647d" stroke="#6f647d" stroke-width="1.51"/><path d="M-100,61L-142,211L-68,120Z" fill="#5f0052" stroke="#5f0052" stroke-width="1.51"/><path d="M-68,120L-142,211L-50,163Z" fill="#62085a" stroke="#62085a" stroke-width="1.51"/><path d="M-131,303L-142,211L-140,419Z" fill="#552b65" stroke="#552b65" stroke-width="1.51"/><path d="M-129,747L-85,883L-66,836Z" fill="#7c707e" stroke="#7c707e" stroke-width="1.51"/><path d="M-22,902L-54,982L31,913Z" fill="#8b788a" stroke="#8b788a" stroke-width="1.51"/><path d="M86,-106L6,-91L58,-57Z" fill="#4f003f" stroke="#4f003f" stroke-width="1.51"/><path d="M-79,-113L6,-91L86,-106Z" fill="#480037" stroke="#480037" stroke-width="1.51"/><path d="M1469,1028L1569,910L1439,952Z" fill="#c5f1e1" stroke="#c5f1e1" stroke-width="1.51"/><path d="M6,-91L-41,-42L58,-57Z" fill="#4e003e" stroke="#4e003e" stroke-width="1.51"/><path d="M-41,-42L-100,61L14,36Z" fill="#550046" stroke="#550046" stroke-width="1.51"/><path d="M-69,1020L-54,982L-85,883Z" fill="#867683" stroke="#867683" stroke-width="1.51"/><path d="M-85,883L-54,982L-22,902Z" fill="#857684" stroke="#857684" stroke-width="1.51"/><path d="M121,1014L-69,1020L262,1048Z" fill="#9d829b" stroke="#9d829b" stroke-width="1.51"/><path d="M1515,-20L1499,-125L1475,-31Z" fill="#8f7b8b" stroke="#8f7b8b" stroke-width="1.51"/><path d="M1548,87L1499,-125L1515,-20Z" fill="#967e94" stroke="#967e94" stroke-width="1.51"/><path d="M-129,747L-69,1020L-85,883Z" fill="#7f727e" stroke="#7f727e" stroke-width="1.51"/><path d="M-54,982L-69,1020L87,983Z" fill="#8e7b8a" stroke="#8e7b8a" stroke-width="1.51"/><path d="M-41,-42L-126,-20L-100,61Z" fill="#4e003d" stroke="#4e003d" stroke-width="1.51"/><path d="M-100,61L-126,-20L-142,211Z" fill="#560048" stroke="#560048" stroke-width="1.51"/><path d="M-79,-113L-126,-20L-41,-42Z" fill="#460034" stroke="#460034" stroke-width="1.51"/><path d="M6,-91L-79,-113L-41,-42Z" fill="#470035" stroke="#470035" stroke-width="1.51"/><path d="M203,-151L-79,-113L86,-106Z" fill="#4c003b" stroke="#4c003b" stroke-width="1.51"/><path d="M1469,1028L1576,1050L1569,910Z" fill="#c9f4e2" stroke="#c9f4e2" stroke-width="1.51"/><path d="M1569,910L1576,1050L1576,838Z" fill="#c7f2e2" stroke="#c7f2e2" stroke-width="1.51"/><path d="M1576,838L1576,1050L1578,490Z" fill="#beede1" stroke="#beede1" stroke-width="1.51"/><path d="M1299,1033L1576,1050L1469,1028Z" fill="#c8f3e2" stroke="#c8f3e2" stroke-width="1.51"/><path d="M1026,1041L1576,1050L1299,1033Z" fill="#c2efe1" stroke="#c2efe1" stroke-width="1.51"/><path d="M647,1047L1576,1050L1026,1041Z" fill="#b5e3e1" stroke="#b5e3e1" stroke-width="1.51"/><path d="M262,1048L1576,1050L647,1047Z" fill="#99c7e2" stroke="#99c7e2" stroke-width="1.51"/></svg>